<svg width="40" height="16" viewBox="0 0 40 16" fill="none" xmlns="http://www.w3.org/2000/svg">
<g clip-path="url(#clip0_1922_9096)">
<path d="M0.307692 0H0V0.307692H0.307692V0Z" fill="#EC1D24"/>
<path d="M0 0H40V16H0V0Z" fill="#EC1D24"/>
<path d="M38.8372 12.326V14.7586H34.332V1.23096H36.7582V12.326H38.8372ZM19.5868 7.8645C19.3991 7.95496 19.2028 7.99988 19.0114 8.0005V3.64973H19.0237C19.2151 3.64819 20.6434 3.70634 20.6434 5.80142C20.6434 6.8965 20.1572 7.58726 19.5868 7.8645ZM12.4766 10.5356L13.1483 4.75126L13.8452 10.5356H12.4766ZM33.9089 3.70019V1.23311H27.0394L25.9086 9.4728L24.7917 1.2328H22.3142L22.5914 3.4328C22.3059 2.86911 21.2917 1.2328 19.0591 1.2328C19.0446 1.23219 16.5791 1.2328 16.5791 1.2328L16.5695 13.2426L14.764 1.23311L11.5194 1.23157L9.65108 13.6747L9.6517 1.23311H6.54678L5.42739 8.22296L4.33693 1.2328H1.23047V14.7608H3.67662V8.24019L4.78985 14.7608H6.09016L7.18708 8.24019V14.7608H11.9031L12.1886 12.6802H14.0871L14.3723 14.7608L19.0022 14.7633H19.0052V14.7608H19.0114V10.37L19.5791 10.287L20.7535 14.7639H23.1486L23.148 14.7608H23.1548L21.6129 9.51526C22.3939 8.9368 23.2763 7.47096 23.0415 6.06819V6.06757C23.044 6.08542 24.4966 14.7694 24.4966 14.7694L27.3446 14.7611L29.2914 2.49957V14.7611H33.9089V12.3279H31.7169V9.22634H33.9089V6.75557H31.7169V3.69988L33.9089 3.70019Z" fill="#FEFEFE"/>
<path d="M9.69201 14.7694V1.23096H6.55078L5.43078 8.22634L4.33878 1.23096H1.23047V14.7694H3.69201V8.24388L4.79262 14.7694H6.09385L7.1917 8.24388V14.7694H9.69201Z" fill="#FEFEFE"/>
</g>
<defs>
<clipPath id="clip0_1922_9096">
<rect width="40" height="16" fill="white"/>
</clipPath>
</defs>
</svg>
