<svg width="15" height="15" viewBox="0 0 15 15" fill="none" xmlns="http://www.w3.org/2000/svg">
<path d="M15 7.5C15 11.6421 11.6421 15 7.5 15C3.35786 15 0 11.6421 0 7.5C0 3.35786 3.35786 0 7.5 0C11.6421 0 15 3.35786 15 7.5Z" fill="#6C8E08"/>
<path fill-rule="evenodd" clip-rule="evenodd" d="M5.46399 11.5559C5.48313 11.5751 5.5032 11.5937 5.5242 11.6117C5.94402 11.9705 6.57525 11.9211 6.9341 11.5013L11.9358 5.64977C12.2947 5.22995 12.2453 4.59872 11.8254 4.23987C11.4056 3.88102 10.7744 3.93045 10.4155 4.35027L6.02557 9.48609L4.62596 8.36277C4.19525 8.01708 3.56585 8.08601 3.22016 8.51673C2.87446 8.94744 2.94339 9.57684 3.37411 9.92254L5.23922 11.4195C5.30955 11.4759 5.38517 11.5213 5.46399 11.5559Z" fill="white"/>
</svg>
