<svg width="13" height="13" viewBox="0 0 13 13" fill="none" xmlns="http://www.w3.org/2000/svg">
<path fill-rule="evenodd" clip-rule="evenodd" d="M9.26622 10.3824C8.29681 11.118 7.08801 11.5545 5.77726 11.5545C2.58657 11.5545 0 8.96796 0 5.77726C0 2.58657 2.58657 0 5.77726 0C8.96796 0 11.5545 2.58657 11.5545 5.77726C11.5545 7.08908 11.1173 8.29878 10.3806 9.26859L12.7549 11.6568C13.0617 11.9653 13.0602 12.4641 12.7517 12.7709C12.4431 13.0777 11.9443 13.0762 11.6375 12.7676L9.26622 10.3824ZM9.97891 5.77726C9.97891 8.09777 8.09777 9.97891 5.77726 9.97891C3.45676 9.97891 1.57562 8.09777 1.57562 5.77726C1.57562 3.45676 3.45676 1.57562 5.77726 1.57562C8.09777 1.57562 9.97891 3.45676 9.97891 5.77726Z" fill="#D9D9D9"/>
</svg>
